<?xml version="1.0" encoding="UTF-8" standalone="no"?>
<svg width="39px" height="28px" viewBox="0 0 39 28" version="1.1" xmlns="http://www.w3.org/2000/svg" xmlns:xlink="http://www.w3.org/1999/xlink">
    <!-- Generator: Sketch 47.1 (45422) - http://www.bohemiancoding.com/sketch -->
    <title>Group 7</title>
    <desc>Created with Sketch.</desc>
    <defs></defs>
    <g id="Page-1" stroke="none" stroke-width="1" fill="none" fill-rule="evenodd">
        <g id="Desktop-HD" transform="translate(-763.000000, -3726.000000)">
            <g id="Group-29" transform="translate(0.000000, 3720.000000)">
                <g id="Group-23">
                    <g id="Group-11">
                        <g id="Group-12" transform="translate(307.000000, 0.000000)">
                            <g id="Group-10" transform="translate(330.000000, 0.000000)">
                                <g id="Group-7" transform="translate(125.000000, 0.000000)">
                                    <rect id="Rectangle-6-Copy" x="0" y="0" width="40" height="40"></rect>
                                    <g id="youtube-icon-(2)" transform="translate(1.159420, 6.666667)" fill-rule="nonzero">
                                        <path d="M24.622602,12.1887068 C21.0739717,10.3714789 17.676133,8.7008128 14.2028986,6.95652174 L14.2028986,17.3913043 C17.8578011,15.487378 21.7101689,13.743775 24.6376812,12.1887068 L24.622602,12.1887068 L24.622602,12.1887068 Z" id="Shape" fill="#FFFFFF"></path>
                                        <path d="M24.6376812,12.3797684 C21.0839154,10.4961815 14.2028986,6.95652174 14.2028986,6.95652174 L23.3771082,13.072295 C23.3778273,13.072295 21.7059322,13.9916223 24.6376812,12.3797684 Z" id="Shape" fill="#E8E0E0"></path>
                                        <path d="M15.725872,26.6336205 C8.49445706,26.5004806 6.02457487,26.3807251 4.50643565,26.067952 C3.47931408,25.860141 2.58674685,25.3987301 1.93229147,24.7295083 C1.42647989,24.223013 1.02422583,23.4502379 0.712144312,22.378074 C0.444444589,21.484839 0.340182591,20.7416505 0.191538797,18.9262982 C-0.0360059675,14.8292516 -0.0902503851,11.4796202 0.191538797,7.73690897 C0.424014873,5.67007013 0.536730546,3.21649152 2.08093527,1.78506121 C2.81006478,1.11513493 3.65825021,0.684015169 4.61069765,0.505790826 C6.09854454,0.223308763 12.4373922,0 18.9995578,0 C25.5469294,0 31.8998666,0.223308763 33.3891224,0.505790826 C34.5789772,0.729099588 35.6948624,1.39832143 36.3500222,2.26126539 C37.7589681,4.47744636 37.7836247,7.23323147 37.9266327,9.38883026 C37.9858084,10.4159097 37.9858084,16.2480019 37.9266327,17.2750814 C37.7040192,20.6817728 37.5250831,21.8870765 37.0192715,23.1367603 C36.7064855,23.9257376 36.4394903,24.342064 35.977356,24.8034749 C35.2525684,25.513525 34.3285789,25.9858215 33.3285377,26.1574163 C27.0707044,26.627985 21.7568649,26.7301294 15.725872,26.6336205 L15.725872,26.6336205 Z M25.3088176,12.9448638 C21.8273122,11.0844271 18.4937462,9.35924361 15.0862105,7.57347795 L15.0862105,18.2570764 C18.6719779,16.3078797 22.4521797,14.522114 25.3236115,12.9300705 L25.3088176,12.9448638 Z" id="Shape" fill="#231F20"></path>
                                    </g>
                                </g>
                            </g>
                        </g>
                    </g>
                </g>
            </g>
        </g>
    </g>
</svg>