<?xml version="1.0" encoding="UTF-8" standalone="no"?>
<svg width="18px" height="36px" viewBox="0 0 18 36" version="1.1" xmlns="http://www.w3.org/2000/svg" xmlns:xlink="http://www.w3.org/1999/xlink">
    <!-- Generator: Sketch 47.1 (45422) - http://www.bohemiancoding.com/sketch -->
    <title>Group 8</title>
    <desc>Created with Sketch.</desc>
    <defs></defs>
    <g id="Page-1" stroke="none" stroke-width="1" fill="none" fill-rule="evenodd">
        <g id="Desktop-HD" transform="translate(-648.000000, -3722.000000)">
            <g id="Group-29" transform="translate(0.000000, 3720.000000)">
                <g id="Group-23">
                    <g id="Group-11">
                        <g id="Group-12" transform="translate(307.000000, 0.000000)">
                            <g id="Group-10" transform="translate(330.000000, 0.000000)">
                                <g id="Group-8">
                                    <rect id="Rectangle-6" x="0" y="0" width="40" height="40"></rect>
                                    <g id="facebook-3-(4)" transform="translate(11.884058, 2.898551)" fill-rule="nonzero" fill="#000000">
                                        <path d="M16.2077166,0 L10.6949264,0 C7.42345262,0 3.78465107,1.37588407 3.78465107,6.11783813 C3.80062184,7.77011578 3.78465107,9.35251343 3.78465107,11.1333973 L0,11.1333973 L0,17.155668 L3.90177008,17.155668 L3.90177008,34.4927536 L11.0714648,34.4927536 L11.0714648,17.0412574 L15.8037152,17.0412574 L16.2318841,11.1164977 L10.9479237,11.1164977 C10.9479237,11.1164977 10.9597539,8.48091457 10.9479237,7.71552995 C10.9479237,5.84161353 12.8978792,5.94892624 13.0151673,5.94892624 C13.9430777,5.94892624 15.7472682,5.95163018 16.2104207,5.94892624 L16.2104207,0 L16.2077166,0 L16.2077166,0 Z" id="Shape"></path>
                                    </g>
                                </g>
                            </g>
                        </g>
                    </g>
                </g>
            </g>
        </g>
    </g>
</svg>