<?xml version="1.0" encoding="UTF-8" standalone="no"?>
<svg width="32px" height="32px" viewBox="0 0 32 32" version="1.1" xmlns="http://www.w3.org/2000/svg" xmlns:xlink="http://www.w3.org/1999/xlink">
    <!-- Generator: Sketch 47.1 (45422) - http://www.bohemiancoding.com/sketch -->
    <title>Group 6</title>
    <desc>Created with Sketch.</desc>
    <defs>
        <polygon id="path-1" points="0 0 31.5942029 0 31.5942029 31.5942029 0 31.5942029"></polygon>
    </defs>
    <g id="Page-1" stroke="none" stroke-width="1" fill="none" fill-rule="evenodd">
        <g id="Desktop-HD" transform="translate(-704.000000, -3724.000000)">
            <g id="Group-29" transform="translate(0.000000, 3720.000000)">
                <g id="Group-23">
                    <g id="Group-11">
                        <g id="Group-12" transform="translate(307.000000, 0.000000)">
                            <g id="Group-10" transform="translate(330.000000, 0.000000)">
                                <g id="Group-6" transform="translate(63.000000, 0.000000)">
                                    <rect id="Rectangle-6-Copy-2" x="0" y="0" width="40" height="40"></rect>
                                    <g id="instagram-glyph" transform="translate(4.347826, 4.347826)">
                                        <mask id="mask-2" fill="white">
                                            <use xlink:href="#path-1"></use>
                                        </mask>
                                        <g id="a"></g>
                                        <path d="M27.9495124,13.365404 L25.199108,13.365404 C25.3995129,14.1433127 25.5178579,14.9561115 25.5178579,15.7965432 C25.5178579,21.1662626 21.1658886,25.5183088 15.7971014,25.5183088 C10.4285934,25.5183088 6.07634501,21.1662626 6.07634501,15.7965432 C6.07634501,14.9561115 6.19524822,14.1433127 6.39565317,13.365404 L3.64496966,13.365404 L3.64496966,26.7333201 C3.64496966,27.4034883 4.18924494,27.9474941 4.86135512,27.9474941 L26.7331269,27.9474941 C27.0554363,27.9477904 27.3646624,27.8200352 27.592779,27.5923334 C27.8208956,27.3646316 27.9492164,27.0556352 27.9495124,26.7333201 L27.9495124,13.365404 Z M27.9495124,4.8597663 C27.9493644,4.5373288 27.8211178,4.22816039 27.5929932,4.00029352 C27.3648686,3.77242666 27.0555587,3.64453279 26.7331269,3.64475494 L23.0884363,3.64475494 C22.4173708,3.64475492 21.8733215,4.18868891 21.8731673,4.8597663 L21.8731673,8.50591684 C21.8731673,8.82820625 22.0012131,9.13729145 22.2291283,9.36515831 C22.4570435,9.59302516 22.7661526,9.72100223 23.0884363,9.7209282 L26.7331269,9.7209282 C27.0555587,9.72115035 27.3648686,9.59325648 27.5929932,9.36538961 C27.8211178,9.13752275 27.9493644,8.82835434 27.9495124,8.50591684 L27.9495124,4.8597663 Z M15.7968223,9.7209282 C12.4410164,9.7209282 9.72103555,12.4406779 9.72103555,15.7965432 C9.72103555,19.1518502 12.4410164,21.8729956 15.7968223,21.8729956 C19.1526283,21.8729956 21.8731673,19.1518502 21.8731673,15.7965432 C21.8731673,12.4406779 19.1526283,9.7209282 15.7968223,9.7209282 L15.7968223,9.7209282 Z M27.9495124,31.5942029 L3.64469054,31.5942029 C1.63198848,31.5942029 0,29.9616273 0,27.947215 L0,3.64475494 C0,1.6317382 1.63198848,0 3.64469054,0 L27.9495124,0 C29.9624935,0 31.5942029,1.6317382 31.5942029,3.64475494 L31.5942029,27.947215 C31.5939238,29.9616273 29.9624935,31.5942029 27.9495124,31.5942029 L27.9495124,31.5942029 Z" id="Shape" fill="#231F20" mask="url(#mask-2)"></path>
                                    </g>
                                </g>
                            </g>
                        </g>
                    </g>
                </g>
            </g>
        </g>
    </g>
</svg>